{
  "version": "1.1.6",
  "modules": [
    {
      "id": 1,
      "plugin": "Core",
      "version": "1.1.6",
      "model": "AudioInterface",
      "params": [],
      "leftModuleId": 67,
      "data": {
        "audio": {
          "driver": 1,
          "deviceName": "hw:HDA Intel PCH,0",
          "offset": 0,
          "maxChannels": 8,
          "sampleRate": 44100,
          "blockSize": 256
        }
      },
      "pos": [
        94,
        0
      ]
    },
    {
      "id": 3,
      "plugin": "Fundamental",
      "version": "1.4.0",
      "model": "VCO",
      "params": [
        {
          "id": 0,
          "value": 1.0
        },
        {
          "id": 1,
          "value": 1.0
        },
        {
          "id": 2,
          "value": 0.0
        },
        {
          "id": 3,
          "value": 0.0
        },
        {
          "id": 4,
          "value": 0.0
        },
        {
          "id": 5,
          "value": 0.786160231
        },
        {
          "id": 6,
          "value": 0.959499896
        }
      ],
      "leftModuleId": 92,
      "rightModuleId": 6,
      "pos": [
        20,
        1
      ]
    },
    {
      "id": 6,
      "plugin": "Fundamental",
      "version": "1.4.0",
      "model": "ADSR",
      "params": [
        {
          "id": 0,
          "value": 0.0
        },
        {
          "id": 1,
          "value": 0.618499994
        },
        {
          "id": 2,
          "value": 0.591500998
        },
        {
          "id": 3,
          "value": 0.589000463
        }
      ],
      "leftModuleId": 3,
      "rightModuleId": 72,
      "pos": [
        30,
        1
      ]
    },
    {
      "id": 62,
      "plugin": "ImpromptuModular",
      "version": "1.1.9",
      "model": "Clocked",
      "params": [
        {
          "id": 0,
          "value": 120.0
        },
        {
          "id": 1,
          "value": -17.0
        },
        {
          "id": 2,
          "value": 5.0
        },
        {
          "id": 3,
          "value": -2.0
        },
        {
          "id": 4,
          "value": 0.0
        },
        {
          "id": 5,
          "value": 0.0
        },
        {
          "id": 6,
          "value": 0.0929993913
        },
        {
          "id": 7,
          "value": 0.0
        },
        {
          "id": 8,
          "value": 0.5
        },
        {
          "id": 9,
          "value": 0.5
        },
        {
          "id": 10,
          "value": 0.5
        },
        {
          "id": 11,
          "value": 0.5
        },
        {
          "id": 12,
          "value": 0.0
        },
        {
          "id": 13,
          "value": 0.0
        },
        {
          "id": 14,
          "value": 0.0
        },
        {
          "id": 15,
          "value": 1.0
        },
        {
          "id": 16,
          "value": 0.0
        },
        {
          "id": 17,
          "value": 0.0
        },
        {
          "id": 18,
          "value": 0.0
        },
        {
          "id": 19,
          "value": 0.0
        }
      ],
      "rightModuleId": 126,
      "data": {
        "panelTheme": 1,
        "running": true,
        "displayDelayNoteMode": true,
        "bpmDetectionMode": false,
        "resetOnStartStop": 0,
        "ppqn": 4,
        "resetClockOutputsHigh": true,
        "momentaryRunInput": true,
        "clockMaster": false
      },
      "pos": [
        15,
        0
      ]
    },
    {
      "id": 67,
      "plugin": "Valley",
      "version": "1.1.4",
      "model": "Plateau",
      "params": [
        {
          "id": 0,
          "value": 0.896499991
        },
        {
          "id": 1,
          "value": 0.76399982
        },
        {
          "id": 2,
          "value": 0.0
        },
        {
          "id": 3,
          "value": 10.0
        },
        {
          "id": 4,
          "value": 10.0
        },
        {
          "id": 5,
          "value": 0.186000004
        },
        {
          "id": 6,
          "value": 7.67500114
        },
        {
          "id": 7,
          "value": 0.559849024
        },
        {
          "id": 8,
          "value": 6.53499651
        },
        {
          "id": 9,
          "value": 10.0
        },
        {
          "id": 10,
          "value": 0.0
        },
        {
          "id": 11,
          "value": 0.5
        },
        {
          "id": 12,
          "value": 0.0
        },
        {
          "id": 13,
          "value": 0.0
        },
        {
          "id": 14,
          "value": 0.0
        },
        {
          "id": 15,
          "value": 0.0
        },
        {
          "id": 16,
          "value": 0.0
        },
        {
          "id": 17,
          "value": 0.0
        },
        {
          "id": 18,
          "value": 0.0
        },
        {
          "id": 19,
          "value": 0.0
        },
        {
          "id": 20,
          "value": 0.0
        },
        {
          "id": 21,
          "value": 0.0
        },
        {
          "id": 22,
          "value": 0.0
        },
        {
          "id": 23,
          "value": 0.623999834
        },
        {
          "id": 24,
          "value": 0.0
        },
        {
          "id": 25,
          "value": 0.0
        },
        {
          "id": 26,
          "value": 0.0
        },
        {
          "id": 27,
          "value": 0.0
        },
        {
          "id": 28,
          "value": 0.0
        },
        {
          "id": 29,
          "value": 0.0
        },
        {
          "id": 30,
          "value": 1.0
        }
      ],
      "leftModuleId": 69,
      "rightModuleId": 1,
      "data": {
        "frozen": false,
        "freezeToggle": false,
        "panelStyle": 0,
        "tuned": 0,
        "diffuseInput": 1,
        "preDelayCVSens": 0,
        "inputSensitivity": 0,
        "outputSaturation": 0
      },
      "pos": [
        82,
        0
      ]
    },
    {
      "id": 69,
      "plugin": "Bogaudio",
      "version": "1.1.35",
      "model": "Bogaudio-Mix8",
      "params": [
        {
          "id": 0,
          "value": 0.801091969
        },
        {
          "id": 1,
          "value": 0.0
        },
        {
          "id": 2,
          "value": -0.0230002925
        },
        {
          "id": 3,
          "value": 0.753091097
        },
        {
          "id": 4,
          "value": 0.0
        },
        {
          "id": 5,
          "value": -1.0
        },
        {
          "id": 6,
          "value": 0.757591009
        },
        {
          "id": 7,
          "value": 0.0
        },
        {
          "id": 8,
          "value": 1.0
        },
        {
          "id": 9,
          "value": 0.753091395
        },
        {
          "id": 10,
          "value": 0.0
        },
        {
          "id": 11,
          "value": 0.0
        },
        {
          "id": 12,
          "value": 0.675091386
        },
        {
          "id": 13,
          "value": 0.0
        },
        {
          "id": 14,
          "value": 0.0
        },
        {
          "id": 15,
          "value": 0.909090936
        },
        {
          "id": 16,
          "value": 0.0
        },
        {
          "id": 17,
          "value": 0.0
        },
        {
          "id": 18,
          "value": 0.909090936
        },
        {
          "id": 19,
          "value": 0.0
        },
        {
          "id": 20,
          "value": 0.0
        },
        {
          "id": 21,
          "value": 0.909465969
        },
        {
          "id": 22,
          "value": 0.0
        },
        {
          "id": 23,
          "value": 0.0
        },
        {
          "id": 24,
          "value": 0.789091229
        },
        {
          "id": 25,
          "value": 0.0
        },
        {
          "id": 26,
          "value": 0.0
        }
      ],
      "leftModuleId": 126,
      "rightModuleId": 67,
      "data": {
        "dim_decibels": 12.0,
        "poly_channel_offset": -1
      },
      "pos": [
        55,
        0
      ]
    },
    {
      "id": 72,
      "plugin": "Fundamental",
      "version": "1.4.0",
      "model": "VCA-1",
      "params": [
        {
          "id": 0,
          "value": 0.951999843
        },
        {
          "id": 1,
          "value": 1.0
        }
      ],
      "leftModuleId": 6,
      "rightModuleId": 112,
      "pos": [
        38,
        1
      ]
    },
    {
      "id": 73,
      "plugin": "Fundamental",
      "version": "1.4.0",
      "model": "VCO",
      "params": [
        {
          "id": 0,
          "value": 1.0
        },
        {
          "id": 1,
          "value": 1.0
        },
        {
          "id": 2,
          "value": 0.0
        },
        {
          "id": 3,
          "value": 0.0
        },
        {
          "id": 4,
          "value": 0.0
        },
        {
          "id": 5,
          "value": 0.657779455
        },
        {
          "id": 6,
          "value": 0.769500792
        }
      ],
      "rightModuleId": 82,
      "pos": [
        46,
        2
      ]
    },
    {
      "id": 74,
      "plugin": "Bogaudio",
      "version": "1.1.35",
      "model": "Bogaudio-EightFO",
      "params": [
        {
          "id": 0,
          "value": -0.545991778
        },
        {
          "id": 1,
          "value": 3.0
        },
        {
          "id": 2,
          "value": 0.00400002906
        },
        {
          "id": 3,
          "value": 0.0
        },
        {
          "id": 4,
          "value": 0.0
        },
        {
          "id": 5,
          "value": 0.0
        },
        {
          "id": 6,
          "value": 0.0
        },
        {
          "id": 7,
          "value": 0.0
        },
        {
          "id": 8,
          "value": 0.0
        },
        {
          "id": 9,
          "value": 0.0
        },
        {
          "id": 10,
          "value": 0.0
        },
        {
          "id": 11,
          "value": 1.0
        },
        {
          "id": 12,
          "value": 0.0159999002
        },
        {
          "id": 13,
          "value": 1.0
        }
      ],
      "leftModuleId": 91,
      "data": {},
      "pos": [
        26,
        2
      ]
    },
    {
      "id": 75,
      "plugin": "Fundamental",
      "version": "1.4.0",
      "model": "VCA-1",
      "params": [
        {
          "id": 0,
          "value": 0.605499923
        },
        {
          "id": 1,
          "value": 1.0
        }
      ],
      "leftModuleId": 82,
      "rightModuleId": 109,
      "pos": [
        66,
        2
      ]
    },
    {
      "id": 82,
      "plugin": "Bogaudio",
      "version": "1.1.35",
      "model": "Bogaudio-VCF",
      "params": [
        {
          "id": 0,
          "value": 0.248999849
        },
        {
          "id": 1,
          "value": 0.339999944
        },
        {
          "id": 2,
          "value": 0.971500278
        },
        {
          "id": 3,
          "value": 0.0
        },
        {
          "id": 4,
          "value": 0.0
        },
        {
          "id": 5,
          "value": 0.522233009
        }
      ],
      "leftModuleId": 73,
      "rightModuleId": 75,
      "data": {
        "bandwidthMode": "pitched"
      },
      "pos": [
        56,
        2
      ]
    },
    {
      "id": 91,
      "plugin": "JW-Modules",
      "version": "1.0.17",
      "model": "GridSeq",
      "params": [
        {
          "id": 0,
          "value": 0.0
        },
        {
          "id": 1,
          "value": 0.0
        },
        {
          "id": 2,
          "value": 0.0
        },
        {
          "id": 3,
          "value": 4.59000063
        },
        {
          "id": 4,
          "value": 3.0
        },
        {
          "id": 5,
          "value": 3.0
        },
        {
          "id": 6,
          "value": 2.32500029
        },
        {
          "id": 7,
          "value": 3.85500169
        },
        {
          "id": 8,
          "value": 1.29000008
        },
        {
          "id": 9,
          "value": 1.77000058
        },
        {
          "id": 10,
          "value": 3.0
        },
        {
          "id": 11,
          "value": 2.23499918
        },
        {
          "id": 12,
          "value": 3.0
        },
        {
          "id": 13,
          "value": 1.45499992
        },
        {
          "id": 14,
          "value": 3.0
        },
        {
          "id": 15,
          "value": 3.20999837
        },
        {
          "id": 16,
          "value": 0.855001032
        },
        {
          "id": 17,
          "value": 3.0
        },
        {
          "id": 18,
          "value": 1.93499959
        },
        {
          "id": 19,
          "value": 0.0
        },
        {
          "id": 20,
          "value": 0.0
        },
        {
          "id": 21,
          "value": 0.0
        },
        {
          "id": 22,
          "value": 0.0
        },
        {
          "id": 23,
          "value": 0.0
        },
        {
          "id": 24,
          "value": 0.0
        },
        {
          "id": 25,
          "value": 0.0
        },
        {
          "id": 26,
          "value": 0.0
        },
        {
          "id": 27,
          "value": 0.0
        },
        {
          "id": 28,
          "value": 0.0
        },
        {
          "id": 29,
          "value": 0.0
        },
        {
          "id": 30,
          "value": 0.0
        },
        {
          "id": 31,
          "value": 0.0
        },
        {
          "id": 32,
          "value": 0.0
        },
        {
          "id": 33,
          "value": 0.0
        },
        {
          "id": 34,
          "value": 0.0
        },
        {
          "id": 35,
          "value": 0.0
        },
        {
          "id": 36,
          "value": 0.0
        },
        {
          "id": 37,
          "value": 4.0
        },
        {
          "id": 38,
          "value": 0.0
        },
        {
          "id": 39,
          "value": 0.0
        },
        {
          "id": 40,
          "value": 0.0
        },
        {
          "id": 41,
          "value": 0.0
        },
        {
          "id": 42,
          "value": 0.0
        },
        {
          "id": 43,
          "value": 0.0
        },
        {
          "id": 44,
          "value": 0.0
        },
        {
          "id": 45,
          "value": 3.0
        },
        {
          "id": 46,
          "value": -1.0
        },
        {
          "id": 47,
          "value": 1.0
        },
        {
          "id": 48,
          "value": 1.0
        },
        {
          "id": 49,
          "value": 1.0
        },
        {
          "id": 50,
          "value": 1.0
        },
        {
          "id": 51,
          "value": 1.0
        },
        {
          "id": 52,
          "value": 1.0
        },
        {
          "id": 53,
          "value": 1.0
        },
        {
          "id": 54,
          "value": 1.0
        },
        {
          "id": 55,
          "value": 1.0
        },
        {
          "id": 56,
          "value": 1.0
        },
        {
          "id": 57,
          "value": 1.0
        },
        {
          "id": 58,
          "value": 1.0
        },
        {
          "id": 59,
          "value": 1.0
        },
        {
          "id": 60,
          "value": 1.0
        },
        {
          "id": 61,
          "value": 1.0
        },
        {
          "id": 62,
          "value": 1.0
        },
        {
          "id": 63,
          "value": 0.0
        }
      ],
      "rightModuleId": 74,
      "data": {
        "running": true,
        "ignoreGateOnPitchOut": false,
        "gates": [
          1,
          1,
          1,
          1,
          1,
          1,
          1,
          1,
          1,
          1,
          1,
          1,
          1,
          1,
          1,
          1
        ],
        "gateMode": 0
      },
      "pos": [
        6,
        2
      ]
    },
    {
      "id": 92,
      "plugin": "JW-Modules",
      "version": "1.0.17",
      "model": "GridSeq",
      "params": [
        {
          "id": 0,
          "value": 0.0
        },
        {
          "id": 1,
          "value": 0.0
        },
        {
          "id": 2,
          "value": 0.0
        },
        {
          "id": 3,
          "value": 7.42959023
        },
        {
          "id": 4,
          "value": 7.94994736
        },
        {
          "id": 5,
          "value": 2.94145584
        },
        {
          "id": 6,
          "value": 8.80671883
        },
        {
          "id": 7,
          "value": 3.17358446
        },
        {
          "id": 8,
          "value": 7.28576136
        },
        {
          "id": 9,
          "value": 4.12141991
        },
        {
          "id": 10,
          "value": 2.26440859
        },
        {
          "id": 11,
          "value": 4.31507683
        },
        {
          "id": 12,
          "value": 9.36645317
        },
        {
          "id": 13,
          "value": 4.67352295
        },
        {
          "id": 14,
          "value": 3.83362532
        },
        {
          "id": 15,
          "value": 4.65355873
        },
        {
          "id": 16,
          "value": 1.14234746
        },
        {
          "id": 17,
          "value": 0.539056063
        },
        {
          "id": 18,
          "value": 0.125367045
        },
        {
          "id": 19,
          "value": 0.0
        },
        {
          "id": 20,
          "value": 0.0
        },
        {
          "id": 21,
          "value": 0.0
        },
        {
          "id": 22,
          "value": 0.0
        },
        {
          "id": 23,
          "value": 0.0
        },
        {
          "id": 24,
          "value": 0.0
        },
        {
          "id": 25,
          "value": 0.0
        },
        {
          "id": 26,
          "value": 0.0
        },
        {
          "id": 27,
          "value": 0.0
        },
        {
          "id": 28,
          "value": 0.0
        },
        {
          "id": 29,
          "value": 0.0
        },
        {
          "id": 30,
          "value": 0.0
        },
        {
          "id": 31,
          "value": 0.0
        },
        {
          "id": 32,
          "value": 0.0
        },
        {
          "id": 33,
          "value": 0.0
        },
        {
          "id": 34,
          "value": 0.0
        },
        {
          "id": 35,
          "value": 0.0
        },
        {
          "id": 36,
          "value": 0.0
        },
        {
          "id": 37,
          "value": 4.0
        },
        {
          "id": 38,
          "value": 0.0
        },
        {
          "id": 39,
          "value": 0.0
        },
        {
          "id": 40,
          "value": 0.0
        },
        {
          "id": 41,
          "value": 0.0
        },
        {
          "id": 42,
          "value": 0.0
        },
        {
          "id": 43,
          "value": 0.0
        },
        {
          "id": 44,
          "value": 0.0
        },
        {
          "id": 45,
          "value": 1.0
        },
        {
          "id": 46,
          "value": 1.0
        },
        {
          "id": 47,
          "value": 1.0
        },
        {
          "id": 48,
          "value": 1.0
        },
        {
          "id": 49,
          "value": 1.0
        },
        {
          "id": 50,
          "value": 1.0
        },
        {
          "id": 51,
          "value": 1.0
        },
        {
          "id": 52,
          "value": 1.0
        },
        {
          "id": 53,
          "value": 1.0
        },
        {
          "id": 54,
          "value": 1.0
        },
        {
          "id": 55,
          "value": 1.0
        },
        {
          "id": 56,
          "value": 1.0
        },
        {
          "id": 57,
          "value": 1.0
        },
        {
          "id": 58,
          "value": 1.0
        },
        {
          "id": 59,
          "value": 1.0
        },
        {
          "id": 60,
          "value": 1.0
        },
        {
          "id": 61,
          "value": 1.0
        },
        {
          "id": 62,
          "value": 1.0
        },
        {
          "id": 63,
          "value": 0.0
        }
      ],
      "rightModuleId": 3,
      "data": {
        "running": true,
        "ignoreGateOnPitchOut": false,
        "gates": [
          1,
          1,
          1,
          0,
          1,
          0,
          1,
          1,
          1,
          1,
          0,
          0,
          1,
          1,
          0,
          1
        ],
        "gateMode": 0
      },
      "pos": [
        0,
        1
      ]
    },
    {
      "id": 107,
      "plugin": "JW-Modules",
      "version": "1.0.17",
      "model": "Quantizer",
      "params": [
        {
          "id": 0,
          "value": 0.0
        },
        {
          "id": 1,
          "value": 4.0
        }
      ],
      "leftModuleId": 116,
      "rightModuleId": 121,
      "data": {},
      "pos": [
        123,
        2
      ]
    },
    {
      "id": 108,
      "plugin": "Fundamental",
      "version": "1.4.0",
      "model": "VCA-1",
      "params": [
        {
          "id": 0,
          "value": 0.605499923
        },
        {
          "id": 1,
          "value": 1.0
        }
      ],
      "leftModuleId": 109,
      "pos": [
        79,
        2
      ]
    },
    {
      "id": 109,
      "plugin": "Bogaudio",
      "version": "1.1.35",
      "model": "Bogaudio-VCF",
      "params": [
        {
          "id": 0,
          "value": 0.248999849
        },
        {
          "id": 1,
          "value": 0.339999944
        },
        {
          "id": 2,
          "value": 0.971500278
        },
        {
          "id": 3,
          "value": 0.0
        },
        {
          "id": 4,
          "value": 0.0
        },
        {
          "id": 5,
          "value": 0.471000075
        }
      ],
      "leftModuleId": 75,
      "rightModuleId": 108,
      "data": {
        "bandwidthMode": "pitched"
      },
      "pos": [
        69,
        2
      ]
    },
    {
      "id": 112,
      "plugin": "Fundamental",
      "version": "1.4.0",
      "model": "Delay",
      "params": [
        {
          "id": 0,
          "value": 0.59948498
        },
        {
          "id": 1,
          "value": 0.842500329
        },
        {
          "id": 2,
          "value": 0.818999887
        },
        {
          "id": 3,
          "value": 0.509500325
        }
      ],
      "leftModuleId": 72,
      "pos": [
        41,
        1
      ]
    },
    {
      "id": 116,
      "plugin": "voxglitch",
      "version": "1.19.0",
      "model": "digitalsequencer",
      "params": [
        {
          "id": 0,
          "value": 0.0
        },
        {
          "id": 1,
          "value": 32.0
        },
        {
          "id": 2,
          "value": 32.0
        },
        {
          "id": 3,
          "value": 32.0
        },
        {
          "id": 4,
          "value": 32.0
        },
        {
          "id": 5,
          "value": 32.0
        },
        {
          "id": 6,
          "value": 32.0
        },
        {
          "id": 7,
          "value": 0.0
        },
        {
          "id": 8,
          "value": 0.0
        },
        {
          "id": 9,
          "value": 0.0
        },
        {
          "id": 10,
          "value": 0.0
        },
        {
          "id": 11,
          "value": 0.0
        },
        {
          "id": 12,
          "value": 0.0
        },
        {
          "id": 13,
          "value": 0.0
        }
      ],
      "rightModuleId": 107,
      "data": {
        "patterns": [
          [
            8,
            8,
            15,
            10,
            9,
            9,
            9,
            15,
            15,
            15,
            18,
            13,
            12,
            12,
            12,
            9,
            9,
            9,
            12,
            20,
            20,
            20,
            20,
            6,
            6,
            6,
            12,
            19,
            19,
            19,
            19,
            9
          ],
          [
            0,
            0,
            0,
            0,
            0,
            0,
            0,
            0,
            0,
            0,
            0,
            0,
            0,
            0,
            0,
            0,
            0,
            0,
            0,
            0,
            0,
            0,
            0,
            0,
            0,
            0,
            0,
            0,
            0,
            0,
            0,
            0
          ],
          [
            0,
            0,
            0,
            0,
            0,
            0,
            0,
            0,
            0,
            0,
            0,
            0,
            0,
            0,
            0,
            0,
            0,
            0,
            0,
            0,
            0,
            0,
            0,
            0,
            0,
            0,
            0,
            0,
            0,
            0,
            0,
            0
          ],
          [
            0,
            0,
            0,
            0,
            0,
            0,
            0,
            0,
            0,
            0,
            0,
            0,
            0,
            0,
            0,
            0,
            0,
            0,
            0,
            0,
            0,
            0,
            0,
            0,
            0,
            0,
            0,
            0,
            0,
            0,
            0,
            0
          ],
          [
            0,
            0,
            0,
            0,
            0,
            0,
            0,
            0,
            0,
            0,
            0,
            0,
            0,
            0,
            0,
            0,
            0,
            0,
            0,
            0,
            0,
            0,
            0,
            0,
            0,
            0,
            0,
            0,
            0,
            0,
            0,
            0
          ],
          [
            0,
            0,
            0,
            0,
            0,
            0,
            0,
            0,
            0,
            0,
            0,
            0,
            0,
            0,
            0,
            0,
            0,
            0,
            0,
            0,
            0,
            0,
            0,
            0,
            0,
            0,
            0,
            0,
            0,
            0,
            0,
            0
          ]
        ],
        "gates": [
          [
            0,
            0,
            1,
            1,
            0,
            0,
            0,
            1,
            0,
            0,
            1,
            1,
            0,
            0,
            0,
            1,
            0,
            0,
            1,
            1,
            0,
            0,
            0,
            1,
            0,
            0,
            1,
            1,
            0,
            0,
            0,
            1
          ],
          [
            0,
            0,
            0,
            0,
            0,
            0,
            0,
            0,
            0,
            0,
            0,
            0,
            0,
            0,
            0,
            0,
            0,
            0,
            0,
            0,
            0,
            0,
            0,
            0,
            0,
            0,
            0,
            0,
            0,
            0,
            0,
            0
          ],
          [
            0,
            0,
            0,
            0,
            0,
            0,
            0,
            0,
            0,
            0,
            0,
            0,
            0,
            0,
            0,
            0,
            0,
            0,
            0,
            0,
            0,
            0,
            0,
            0,
            0,
            0,
            0,
            0,
            0,
            0,
            0,
            0
          ],
          [
            0,
            0,
            0,
            0,
            0,
            0,
            0,
            0,
            0,
            0,
            0,
            0,
            0,
            0,
            0,
            0,
            0,
            0,
            0,
            0,
            0,
            0,
            0,
            0,
            0,
            0,
            0,
            0,
            0,
            0,
            0,
            0
          ],
          [
            0,
            0,
            0,
            0,
            0,
            0,
            0,
            0,
            0,
            0,
            0,
            0,
            0,
            0,
            0,
            0,
            0,
            0,
            0,
            0,
            0,
            0,
            0,
            0,
            0,
            0,
            0,
            0,
            0,
            0,
            0,
            0
          ],
          [
            0,
            0,
            0,
            0,
            0,
            0,
            0,
            0,
            0,
            0,
            0,
            0,
            0,
            0,
            0,
            0,
            0,
            0,
            0,
            0,
            0,
            0,
            0,
            0,
            0,
            0,
            0,
            0,
            0,
            0,
            0,
            0
          ]
        ],
        "lengths": [
          32,
          32,
          32,
          32,
          32,
          32
        ],
        "voltage_ranges": [
          0,
          0,
          0,
          0,
          0,
          0
        ],
        "snap_divisions": [
          0,
          0,
          0,
          0,
          0,
          0
        ],
        "sample_and_hold": [
          0,
          0,
          0,
          0,
          0,
          0
        ],
        "legacy_reset": 0
      },
      "pos": [
        87,
        2
      ]
    },
    {
      "id": 119,
      "plugin": "Bogaudio",
      "version": "1.1.35",
      "model": "Bogaudio-XCO",
      "params": [
        {
          "id": 0,
          "value": 0.0
        },
        {
          "id": 1,
          "value": 0.0
        },
        {
          "id": 2,
          "value": 0.0
        },
        {
          "id": 3,
          "value": 0.0
        },
        {
          "id": 4,
          "value": 1.0
        },
        {
          "id": 5,
          "value": 0.970000029
        },
        {
          "id": 6,
          "value": -0.0660002306
        },
        {
          "id": 7,
          "value": 0.60700047
        },
        {
          "id": 8,
          "value": 0.438000023
        },
        {
          "id": 9,
          "value": 0.75200063
        },
        {
          "id": 10,
          "value": 1.0
        },
        {
          "id": 11,
          "value": 0.430000335
        },
        {
          "id": 12,
          "value": 0.0489995107
        },
        {
          "id": 13,
          "value": 1.0
        },
        {
          "id": 14,
          "value": 0.0
        },
        {
          "id": 15,
          "value": -0.0369999856
        },
        {
          "id": 16,
          "value": 0.0669999197
        }
      ],
      "leftModuleId": 121,
      "rightModuleId": 124,
      "data": {},
      "pos": [
        133,
        2
      ]
    },
    {
      "id": 121,
      "plugin": "ImpromptuModular",
      "version": "1.1.9",
      "model": "Chord-Key-Expander",
      "params": [
        {
          "id": 0,
          "value": -3.0
        },
        {
          "id": 1,
          "value": 0.0
        },
        {
          "id": 2,
          "value": 0.0
        },
        {
          "id": 3,
          "value": 0.0
        }
      ],
      "leftModuleId": 107,
      "rightModuleId": 119,
      "data": {},
      "pos": [
        127,
        2
      ]
    },
    {
      "id": 123,
      "plugin": "Bogaudio",
      "version": "1.1.35",
      "model": "Bogaudio-ADSR",
      "params": [
        {
          "id": 0,
          "value": 0.0
        },
        {
          "id": 1,
          "value": 0.803730607
        },
        {
          "id": 2,
          "value": 0.941500306
        },
        {
          "id": 3,
          "value": 0.980500162
        },
        {
          "id": 4,
          "value": 0.0
        }
      ],
      "leftModuleId": 124,
      "data": {
        "invert": 1.0
      },
      "pos": [
        156,
        2
      ]
    },
    {
      "id": 124,
      "plugin": "Bogaudio",
      "version": "1.1.35",
      "model": "Bogaudio-Mix1",
      "params": [
        {
          "id": 0,
          "value": 0.936090887
        },
        {
          "id": 1,
          "value": 0.0
        }
      ],
      "leftModuleId": 119,
      "rightModuleId": 123,
      "data": {},
      "pos": [
        153,
        2
      ]
    },
    {
      "id": 126,
      "plugin": "ImpromptuModular",
      "version": "1.1.9",
      "model": "Clocked",
      "params": [
        {
          "id": 0,
          "value": 120.0
        },
        {
          "id": 1,
          "value": -24.0
        },
        {
          "id": 2,
          "value": -17.0
        },
        {
          "id": 3,
          "value": 5.0
        },
        {
          "id": 4,
          "value": 0.0
        },
        {
          "id": 5,
          "value": 0.0
        },
        {
          "id": 6,
          "value": 0.0
        },
        {
          "id": 7,
          "value": 0.0
        },
        {
          "id": 8,
          "value": 0.5
        },
        {
          "id": 9,
          "value": 0.5
        },
        {
          "id": 10,
          "value": 0.5
        },
        {
          "id": 11,
          "value": 0.5
        },
        {
          "id": 12,
          "value": 0.0
        },
        {
          "id": 13,
          "value": 0.0
        },
        {
          "id": 14,
          "value": 0.0
        },
        {
          "id": 15,
          "value": 0.0
        },
        {
          "id": 16,
          "value": 0.0
        },
        {
          "id": 17,
          "value": 0.0
        },
        {
          "id": 18,
          "value": 0.0
        },
        {
          "id": 19,
          "value": 0.0
        }
      ],
      "leftModuleId": 62,
      "rightModuleId": 69,
      "data": {
        "panelTheme": 1,
        "running": true,
        "displayDelayNoteMode": true,
        "bpmDetectionMode": false,
        "resetOnStartStop": 0,
        "ppqn": 4,
        "resetClockOutputsHigh": true,
        "momentaryRunInput": true,
        "clockMaster": false
      },
      "pos": [
        35,
        0
      ]
    },
    {
      "id": 128,
      "plugin": "Bogaudio",
      "version": "1.1.35",
      "model": "Bogaudio-AMRM",
      "params": [
        {
          "id": 0,
          "value": 0.0
        },
        {
          "id": 1,
          "value": 0.695500314
        }
      ],
      "leftModuleId": 141,
      "rightModuleId": 154,
      "data": {
        "poly_input": 1
      },
      "pos": [
        115,
        1
      ]
    },
    {
      "id": 137,
      "plugin": "Bogaudio",
      "version": "1.1.35",
      "model": "Bogaudio-FMOp",
      "params": [
        {
          "id": 0,
          "value": 0.0
        },
        {
          "id": 1,
          "value": 0.0
        },
        {
          "id": 2,
          "value": 0.0
        },
        {
          "id": 3,
          "value": 0.11822997
        },
        {
          "id": 4,
          "value": 0.46450007
        },
        {
          "id": 5,
          "value": 0.217229947
        },
        {
          "id": 6,
          "value": 0.292500705
        },
        {
          "id": 7,
          "value": 0.0989999846
        },
        {
          "id": 8,
          "value": 1.0
        },
        {
          "id": 9,
          "value": 0.0
        },
        {
          "id": 10,
          "value": 0.0
        },
        {
          "id": 11,
          "value": 0.0
        }
      ],
      "leftModuleId": 149,
      "rightModuleId": 138,
      "data": {
        "linearLevel": false
      },
      "pos": [
        83,
        1
      ]
    },
    {
      "id": 138,
      "plugin": "Bogaudio",
      "version": "1.1.35",
      "model": "Bogaudio-FMOp",
      "params": [
        {
          "id": 0,
          "value": 0.0
        },
        {
          "id": 1,
          "value": 0.0
        },
        {
          "id": 2,
          "value": 0.0
        },
        {
          "id": 3,
          "value": 0.134729907
        },
        {
          "id": 4,
          "value": 0.221500039
        },
        {
          "id": 5,
          "value": 0.181229934
        },
        {
          "id": 6,
          "value": 0.178499982
        },
        {
          "id": 7,
          "value": 0.0
        },
        {
          "id": 8,
          "value": 1.0
        },
        {
          "id": 9,
          "value": 0.0
        },
        {
          "id": 10,
          "value": 0.0
        },
        {
          "id": 11,
          "value": 0.0
        }
      ],
      "leftModuleId": 137,
      "rightModuleId": 153,
      "data": {
        "linearLevel": false
      },
      "pos": [
        93,
        1
      ]
    },
    {
      "id": 141,
      "plugin": "Bogaudio",
      "version": "1.1.35",
      "model": "Bogaudio-AMRM",
      "params": [
        {
          "id": 0,
          "value": 0.32499969
        },
        {
          "id": 1,
          "value": 0.658001006
        }
      ],
      "leftModuleId": 152,
      "rightModuleId": 128,
      "data": {
        "poly_input": 1
      },
      "pos": [
        109,
        1
      ]
    },
    {
      "id": 144,
      "plugin": "Bogaudio",
      "version": "1.1.35",
      "model": "Bogaudio-AddrSeq",
      "params": [
        {
          "id": 0,
          "value": 8.0
        },
        {
          "id": 1,
          "value": 1.0
        },
        {
          "id": 2,
          "value": 0.0
        },
        {
          "id": 3,
          "value": 0.0240001045
        },
        {
          "id": 4,
          "value": 0.0
        },
        {
          "id": 5,
          "value": -0.15899992
        },
        {
          "id": 6,
          "value": -0.0510000251
        },
        {
          "id": 7,
          "value": 0.0390000157
        },
        {
          "id": 8,
          "value": 0.0960000008
        },
        {
          "id": 9,
          "value": -0.0780000165
        },
        {
          "id": 10,
          "value": -0.0419999957
        }
      ],
      "rightModuleId": 145,
      "data": {
        "poly_input": 0,
        "select_on_clock": false,
        "triggered_select": false,
        "reverse_on_negative_clock": false,
        "range_offset": 0.0,
        "range_scale": 10.0
      },
      "pos": [
        60,
        1
      ]
    },
    {
      "id": 145,
      "plugin": "JW-Modules",
      "version": "1.0.17",
      "model": "Quantizer",
      "params": [
        {
          "id": 0,
          "value": 0.0
        },
        {
          "id": 1,
          "value": 4.0
        }
      ],
      "leftModuleId": 144,
      "rightModuleId": 146,
      "data": {},
      "pos": [
        66,
        1
      ]
    },
    {
      "id": 146,
      "plugin": "Bogaudio",
      "version": "1.1.35",
      "model": "Bogaudio-PolyMult",
      "params": [
        {
          "id": 0,
          "value": 1.0
        }
      ],
      "leftModuleId": 145,
      "rightModuleId": 149,
      "data": {},
      "pos": [
        70,
        1
      ]
    },
    {
      "id": 149,
      "plugin": "Bogaudio",
      "version": "1.1.35",
      "model": "Bogaudio-FMOp",
      "params": [
        {
          "id": 0,
          "value": 0.0
        },
        {
          "id": 1,
          "value": 0.0
        },
        {
          "id": 2,
          "value": 0.300000012
        },
        {
          "id": 3,
          "value": 0.134729907
        },
        {
          "id": 4,
          "value": 0.454000086
        },
        {
          "id": 5,
          "value": 0.316229999
        },
        {
          "id": 6,
          "value": 0.397500068
        },
        {
          "id": 7,
          "value": 0.0
        },
        {
          "id": 8,
          "value": 1.0
        },
        {
          "id": 9,
          "value": 0.0
        },
        {
          "id": 10,
          "value": 0.0
        },
        {
          "id": 11,
          "value": 0.0
        }
      ],
      "leftModuleId": 146,
      "rightModuleId": 137,
      "data": {
        "linearLevel": false
      },
      "pos": [
        73,
        1
      ]
    },
    {
      "id": 151,
      "plugin": "Bogaudio",
      "version": "1.1.35",
      "model": "Bogaudio-VCF",
      "params": [
        {
          "id": 0,
          "value": 0.114999808
        },
        {
          "id": 1,
          "value": 0.0
        },
        {
          "id": 2,
          "value": 0.0
        },
        {
          "id": 3,
          "value": 0.0
        },
        {
          "id": 4,
          "value": 1.0
        },
        {
          "id": 5,
          "value": 0.522233009
        }
      ],
      "leftModuleId": 154,
      "data": {
        "bandwidthMode": "pitched"
      },
      "pos": [
        131,
        1
      ]
    },
    {
      "id": 152,
      "plugin": "Bogaudio",
      "version": "1.1.35",
      "model": "Bogaudio-ADSR",
      "params": [
        {
          "id": 0,
          "value": 0.0
        },
        {
          "id": 1,
          "value": 0.314730555
        },
        {
          "id": 2,
          "value": 0.369999826
        },
        {
          "id": 3,
          "value": 0.179729849
        },
        {
          "id": 4,
          "value": 0.0
        }
      ],
      "leftModuleId": 153,
      "rightModuleId": 141,
      "data": {
        "invert": 1.0
      },
      "pos": [
        106,
        1
      ]
    },
    {
      "id": 153,
      "plugin": "Bogaudio",
      "version": "1.1.35",
      "model": "Bogaudio-VCAmp",
      "params": [
        {
          "id": 0,
          "value": 0.954833686
        }
      ],
      "leftModuleId": 138,
      "rightModuleId": 152,
      "data": {},
      "pos": [
        103,
        1
      ]
    },
    {
      "id": 154,
      "plugin": "Bogaudio",
      "version": "1.1.35",
      "model": "Bogaudio-VCO",
      "params": [
        {
          "id": 0,
          "value": 0.661499381
        },
        {
          "id": 1,
          "value": 0.0
        },
        {
          "id": 2,
          "value": 0.0
        },
        {
          "id": 3,
          "value": -0.0569999516
        },
        {
          "id": 4,
          "value": 0.56349951
        },
        {
          "id": 5,
          "value": 1.0
        },
        {
          "id": 6,
          "value": 0.0
        }
      ],
      "leftModuleId": 128,
      "rightModuleId": 151,
      "data": {
        "poly_input": 0
      },
      "pos": [
        121,
        1
      ]
    }
  ],
  "cables": [
    {
      "id": 321,
      "outputModuleId": 67,
      "outputId": 0,
      "inputModuleId": 1,
      "inputId": 0,
      "color": "#c9b70e"
    },
    {
      "id": 322,
      "outputModuleId": 67,
      "outputId": 1,
      "inputModuleId": 1,
      "inputId": 1,
      "color": "#0c8e15"
    },
    {
      "id": 324,
      "outputModuleId": 69,
      "outputId": 0,
      "inputModuleId": 67,
      "inputId": 0,
      "color": "#0986ad"
    },
    {
      "id": 325,
      "outputModuleId": 69,
      "outputId": 1,
      "inputModuleId": 67,
      "inputId": 1,
      "color": "#c9b70e"
    },
    {
      "id": 310,
      "outputModuleId": 6,
      "outputId": 0,
      "inputModuleId": 72,
      "inputId": 0,
      "color": "#0c8e15"
    },
    {
      "id": 349,
      "outputModuleId": 82,
      "outputId": 0,
      "inputModuleId": 75,
      "inputId": 1,
      "color": "#c91847"
    },
    {
      "id": 348,
      "outputModuleId": 73,
      "outputId": 2,
      "inputModuleId": 82,
      "inputId": 3,
      "color": "#0c8e15"
    },
    {
      "id": 362,
      "outputModuleId": 92,
      "outputId": 0,
      "inputModuleId": 6,
      "inputId": 4,
      "color": "#c9b70e"
    },
    {
      "id": 381,
      "outputModuleId": 91,
      "outputId": 1,
      "inputModuleId": 73,
      "inputId": 0,
      "color": "#c9b70e"
    },
    {
      "id": 340,
      "outputModuleId": 75,
      "outputId": 0,
      "inputModuleId": 69,
      "inputId": 5,
      "color": "#c91847"
    },
    {
      "id": 394,
      "outputModuleId": 73,
      "outputId": 2,
      "inputModuleId": 109,
      "inputId": 3,
      "color": "#c9b70e"
    },
    {
      "id": 395,
      "outputModuleId": 109,
      "outputId": 0,
      "inputModuleId": 108,
      "inputId": 1,
      "color": "#0c8e15"
    },
    {
      "id": 396,
      "outputModuleId": 108,
      "outputId": 0,
      "inputModuleId": 69,
      "inputId": 8,
      "color": "#c91847"
    },
    {
      "id": 341,
      "outputModuleId": 74,
      "outputId": 0,
      "inputModuleId": 82,
      "inputId": 1,
      "color": "#0986ad"
    },
    {
      "id": 393,
      "outputModuleId": 74,
      "outputId": 1,
      "inputModuleId": 109,
      "inputId": 1,
      "color": "#0986ad"
    },
    {
      "id": 379,
      "outputModuleId": 92,
      "outputId": 1,
      "inputModuleId": 3,
      "inputId": 0,
      "color": "#c91847"
    },
    {
      "id": 399,
      "outputModuleId": 72,
      "outputId": 0,
      "inputModuleId": 112,
      "inputId": 4,
      "color": "#c9b70e"
    },
    {
      "id": 400,
      "outputModuleId": 112,
      "outputId": 0,
      "inputModuleId": 69,
      "inputId": 2,
      "color": "#0c8e15"
    },
    {
      "id": 361,
      "outputModuleId": 62,
      "outputId": 3,
      "inputModuleId": 92,
      "inputId": 3,
      "color": "#0986ad"
    },
    {
      "id": 318,
      "outputModuleId": 62,
      "outputId": 2,
      "inputModuleId": 91,
      "inputId": 3,
      "color": "#c9b70e"
    },
    {
      "id": 409,
      "outputModuleId": 116,
      "outputId": 2,
      "inputModuleId": 107,
      "inputId": 2,
      "color": "#c91847"
    },
    {
      "id": 419,
      "outputModuleId": 107,
      "outputId": 0,
      "inputModuleId": 121,
      "inputId": 0,
      "color": "#c9b70e"
    },
    {
      "id": 420,
      "outputModuleId": 121,
      "outputId": 0,
      "inputModuleId": 119,
      "inputId": 14,
      "color": "#0c8e15"
    },
    {
      "id": 429,
      "outputModuleId": 119,
      "outputId": 4,
      "inputModuleId": 124,
      "inputId": 2,
      "color": "#0c8e15"
    },
    {
      "id": 430,
      "outputModuleId": 124,
      "outputId": 0,
      "inputModuleId": 69,
      "inputId": 11,
      "color": "#c91847"
    },
    {
      "id": 427,
      "outputModuleId": 116,
      "outputId": 8,
      "inputModuleId": 123,
      "inputId": 0,
      "color": "#0986ad"
    },
    {
      "id": 428,
      "outputModuleId": 123,
      "outputId": 0,
      "inputModuleId": 124,
      "inputId": 1,
      "color": "#c9b70e"
    },
    {
      "id": 433,
      "outputModuleId": 62,
      "outputId": 4,
      "inputModuleId": 92,
      "inputId": 2,
      "color": "#0c8e15"
    },
    {
      "id": 434,
      "outputModuleId": 62,
      "outputId": 4,
      "inputModuleId": 91,
      "inputId": 2,
      "color": "#c91847"
    },
    {
      "id": 371,
      "outputModuleId": 62,
      "outputId": 1,
      "inputModuleId": 92,
      "inputId": 9,
      "color": "#0986ad"
    },
    {
      "id": 370,
      "outputModuleId": 126,
      "outputId": 1,
      "inputModuleId": 92,
      "inputId": 5,
      "color": "#c91847"
    },
    {
      "id": 435,
      "outputModuleId": 62,
      "outputId": 4,
      "inputModuleId": 126,
      "inputId": 4,
      "color": "#c9b70e"
    },
    {
      "id": 408,
      "outputModuleId": 62,
      "outputId": 4,
      "inputModuleId": 116,
      "inputId": 2,
      "color": "#0986ad"
    },
    {
      "id": 436,
      "outputModuleId": 126,
      "outputId": 2,
      "inputModuleId": 91,
      "inputId": 5,
      "color": "#0986ad"
    },
    {
      "id": 438,
      "outputModuleId": 74,
      "outputId": 2,
      "inputModuleId": 119,
      "inputId": 4,
      "color": "#0c8e15"
    },
    {
      "id": 440,
      "outputModuleId": 74,
      "outputId": 5,
      "inputModuleId": 119,
      "inputId": 3,
      "color": "#0986ad"
    },
    {
      "id": 439,
      "outputModuleId": 74,
      "outputId": 6,
      "inputModuleId": 119,
      "inputId": 12,
      "color": "#c91847"
    },
    {
      "id": 407,
      "outputModuleId": 62,
      "outputId": 3,
      "inputModuleId": 116,
      "inputId": 1,
      "color": "#c91847"
    },
    {
      "id": 478,
      "outputModuleId": 137,
      "outputId": 0,
      "inputModuleId": 141,
      "inputId": 0,
      "color": "#c91847"
    },
    {
      "id": 479,
      "outputModuleId": 74,
      "outputId": 3,
      "inputModuleId": 141,
      "inputId": 2,
      "color": "#0986ad"
    },
    {
      "id": 480,
      "outputModuleId": 74,
      "outputId": 4,
      "inputModuleId": 141,
      "inputId": 3,
      "color": "#c9b70e"
    },
    {
      "id": 481,
      "outputModuleId": 126,
      "outputId": 3,
      "inputModuleId": 144,
      "inputId": 0,
      "color": "#0c8e15"
    },
    {
      "id": 445,
      "outputModuleId": 151,
      "outputId": 0,
      "inputModuleId": 69,
      "inputId": 14,
      "color": "#c9b70e"
    },
    {
      "id": 468,
      "outputModuleId": 138,
      "outputId": 0,
      "inputModuleId": 149,
      "inputId": 6,
      "color": "#0986ad"
    },
    {
      "id": 486,
      "outputModuleId": 149,
      "outputId": 0,
      "inputModuleId": 137,
      "inputId": 6,
      "color": "#c91847"
    },
    {
      "id": 482,
      "outputModuleId": 74,
      "outputId": 0,
      "inputModuleId": 137,
      "inputId": 1,
      "color": "#c91847"
    },
    {
      "id": 489,
      "outputModuleId": 144,
      "outputId": 0,
      "inputModuleId": 145,
      "inputId": 2,
      "color": "#0986ad"
    },
    {
      "id": 490,
      "outputModuleId": 145,
      "outputId": 0,
      "inputModuleId": 146,
      "inputId": 1,
      "color": "#c9b70e"
    },
    {
      "id": 491,
      "outputModuleId": 146,
      "outputId": 0,
      "inputModuleId": 137,
      "inputId": 4,
      "color": "#c91847"
    },
    {
      "id": 492,
      "outputModuleId": 146,
      "outputId": 1,
      "inputModuleId": 138,
      "inputId": 4,
      "color": "#0986ad"
    },
    {
      "id": 493,
      "outputModuleId": 146,
      "outputId": 2,
      "inputModuleId": 149,
      "inputId": 4,
      "color": "#c9b70e"
    },
    {
      "id": 494,
      "outputModuleId": 126,
      "outputId": 3,
      "inputModuleId": 152,
      "inputId": 0,
      "color": "#c9b70e"
    },
    {
      "id": 495,
      "outputModuleId": 152,
      "outputId": 0,
      "inputModuleId": 153,
      "inputId": 0,
      "color": "#0c8e15"
    },
    {
      "id": 459,
      "outputModuleId": 138,
      "outputId": 0,
      "inputModuleId": 153,
      "inputId": 1,
      "color": "#0c8e15"
    },
    {
      "id": 496,
      "outputModuleId": 153,
      "outputId": 0,
      "inputModuleId": 141,
      "inputId": 1,
      "color": "#c91847"
    },
    {
      "id": 484,
      "outputModuleId": 141,
      "outputId": 0,
      "inputModuleId": 128,
      "inputId": 1,
      "color": "#c9b70e"
    },
    {
      "id": 498,
      "outputModuleId": 128,
      "outputId": 0,
      "inputModuleId": 151,
      "inputId": 3,
      "color": "#c9b70e"
    },
    {
      "id": 499,
      "outputModuleId": 138,
      "outputId": 0,
      "inputModuleId": 154,
      "inputId": 1,
      "color": "#0c8e15"
    },
    {
      "id": 500,
      "outputModuleId": 74,
      "outputId": 3,
      "inputModuleId": 154,
      "inputId": 3,
      "color": "#c91847"
    },
    {
      "id": 373,
      "outputModuleId": 3,
      "outputId": 1,
      "inputModuleId": 72,
      "inputId": 1,
      "color": "#c91847"
    },
    {
      "id": 497,
      "outputModuleId": 154,
      "outputId": 0,
      "inputModuleId": 128,
      "inputId": 0,
      "color": "#0986ad"
    }
  ]
}